<svg width="10" height="120" xmlns="http://www.w3.org/2000/svg">
 <!-- Created with Method Draw - http://github.com/duopixel/Method-Draw/ -->
 <g>
  <title>background</title>
  <rect fill="#c1a95e" id="canvas_background" height="122" width="12" y="-1" x="-1"/>
  <g display="none" overflow="visible" y="0" x="0" height="100%" width="100%" id="canvasGrid">
   <rect fill="url(#gridpattern)" stroke-width="0" y="0" x="0" height="100%" width="100%"/>
  </g>
 </g>
 <g>
  <title>Layer 1</title>
  <polyline stroke="#000" stroke-linecap="round" id="svg_1" points="3.5,3.5 3.5,3.5 " stroke-width="1.5" fill="none"/>
  <path d="m4.90625,2.68749c0,-0.0625 0.125,-0.0625 0.187499,-0.0625c0.0625,0 0.125,0 0.1875,0c0.0625,0 0.305084,0.143343 0.749997,0.312499c0.36948,0.140476 0.617407,0.28084 0.812497,0.312499c0.123385,0.020023 0.1875,0.125 0.1875,0.0625c0,-0.0625 -0.253312,0.045379 -0.562498,0c-0.6456,-0.094754 -1.062496,-0.187499 -1.437494,-0.187499c-0.312499,0 -0.688562,0.025775 -0.999996,0c-0.378876,-0.031357 -0.518304,-0.106694 -0.562498,-0.0625c-0.044194,0.044194 -0.0625,0.187499 -0.0625,0.437498c0,0.187499 0.129124,0.304852 0.249999,0.374999c0.194904,0.113107 0.301483,0.21789 0.437498,0.249999c0.060828,0.014359 0.0625,0.0625 -0.0625,0.0625c-0.125,0 -0.377817,-0.178024 -0.812497,-0.312499c-0.377625,-0.116824 -0.793903,-0.285218 -1.124996,-0.437498c-0.35912,-0.165172 -0.528673,-0.168339 -0.562498,-0.249999c-0.023918,-0.057742 0.027056,-0.106443 0.249999,-0.249999c0.448972,-0.289099 1.059901,-0.406201 1.624994,-0.437499c0.499233,-0.02765 0.778,-0.098574 0.937496,0c0.118882,0.073473 0.095358,0.196834 0.0625,0.249999c-0.073473,0.118882 -0.249999,0.0625 -0.312499,0.0625l-0.124999,0.0625l-0.0625,0" id="svg_2" fill-opacity="null" stroke-opacity="null" stroke-width="1.5" stroke="#000" fill="none"/>
  <path d="m9.718732,1.937493c0.0625,0 0.0625,0.0625 0.0625,0.124999c0,0.0625 -0.023918,0.254757 0,0.312499c0.033825,0.08166 0.0625,0.187499 0.0625,0.312499c0,0.125 0,0.249999 0,0.374999c0,0.0625 0,0.125 0,0.249999c0,0.125 0.030391,0.176484 0.062499,0.312499c0.014359,0.060828 0,0.125 0,0.187499c0,0.125 0.028675,0.230839 0.0625,0.312499c0.047835,0.115484 0,0.1875 0,0.249999c0,0.125 0,0.1875 0,0.312499c0,0.125 0,0.249999 0,0.312499c0,0.1875 0.019216,0.324124 -0.0625,0.437499c-0.051681,0.071703 -0.062499,0.187499 -0.062499,0.312499c0,0.125 -0.028675,0.168339 -0.0625,0.249999c-0.023918,0.057743 -0.023918,0.129757 0,0.1875c0.033825,0.08166 0.134514,0.014664 0.249999,0.0625c0.08166,0.033825 0.080805,0.080806 0.124999,0.125c0.044194,0.044194 0.080806,0.018305 0.125,0.0625c0.044194,0.044194 0,0.125 0.0625,0.125l0,0.0625l0.062499,0l0,0.0625" id="svg_3" fill-opacity="null" stroke-opacity="null" stroke-width="1.5" stroke="#000" fill="none"/>
  <rect id="svg_4" height="14.666669" width="8.833335" y="0.416655" x="0.583333" stroke-width="1.5" stroke="#6d2014" fill="#6d2014"/>
 </g>
</svg>